<svg class="svg-icon" style="width: 1em;height: 1em;vertical-align: middle;fill: currentColor;overflow: hidden;" viewBox="0 0 1024 1024" version="1.1" xmlns="http://www.w3.org/2000/svg"><path d="M865.16 363.28H158.84c-27.61 0-50-22.39-50-50s22.39-50 50-50h706.32c27.61 0 50 22.39 50 50s-22.39 50-50 50zM865.16 563.22H158.84c-27.61 0-50-22.39-50-50s22.39-50 50-50h706.32c27.61 0 50 22.39 50 50s-22.39 50-50 50zM865.16 763.17H158.84c-27.61 0-50-22.39-50-50s22.39-50 50-50h706.32c27.61 0 50 22.39 50 50s-22.39 50-50 50z" fill="#43A3FB" /></svg>