<svg class="svg-icon" style="width: 1em;height: 1em;vertical-align: middle;fill: currentColor;overflow: hidden;" viewBox="0 0 1024 1024" version="1.1" xmlns="http://www.w3.org/2000/svg"><path d="M317.83 677.09c-57.44 0-111.81-16.02-153.11-45.1-21.08-14.85-37.77-32.37-49.61-52.09-12.86-21.41-19.38-44.33-19.38-68.11s6.52-46.7 19.38-68.11c11.84-19.72 28.53-37.24 49.61-52.09 41.29-29.08 95.67-45.1 153.11-45.1 57.44 0 111.81 16.02 153.11 45.1 21.08 14.85 37.77 32.37 49.61 52.09 12.86 21.41 19.38 44.32 19.38 68.11s-6.52 46.7-19.38 68.11c-11.84 19.71-28.53 37.24-49.61 52.09-41.3 29.08-95.67 45.1-153.11 45.1z m0-270.58c-45.18 0-87.29 12.13-118.56 34.15-28.08 19.77-43.54 45.04-43.54 71.14s15.46 51.37 43.54 71.14c31.27 22.02 73.38 34.15 118.56 34.15s87.29-12.13 118.56-34.15c28.08-19.77 43.54-45.04 43.54-71.14s-15.46-51.36-43.54-71.14c-31.28-22.02-73.38-34.15-118.56-34.15z" fill="#43A3FB" /><path d="M702.02 677.09c-57.44 0-111.81-16.02-153.11-45.1-21.08-14.85-37.77-32.37-49.61-52.09-12.86-21.41-19.38-44.33-19.38-68.11s6.52-46.7 19.38-68.11c11.84-19.72 28.53-37.24 49.61-52.09 41.29-29.08 95.67-45.1 153.11-45.1s111.81 16.02 153.11 45.1c21.08 14.85 37.77 32.37 49.61 52.09 12.86 21.41 19.38 44.32 19.38 68.11s-6.52 46.7-19.38 68.11c-11.84 19.71-28.53 37.24-49.61 52.09-41.3 29.08-95.67 45.1-153.11 45.1z m0-270.58c-45.18 0-87.29 12.13-118.56 34.15-28.08 19.77-43.54 45.04-43.54 71.14s15.46 51.37 43.54 71.14c31.27 22.02 73.38 34.15 118.56 34.15s87.29-12.13 118.56-34.15c28.08-19.77 43.54-45.04 43.54-71.14s-15.46-51.36-43.54-71.14c-31.28-22.02-73.38-34.15-118.56-34.15z" fill="#43A3FB" /><path d="M319.33 279.37m-40 0a40 40 0 1 0 80 0 40 40 0 1 0-80 0Z" fill="#FFCE54" /><path d="M513 279.37m-40 0a40 40 0 1 0 80 0 40 40 0 1 0-80 0Z" fill="#FFCE54" /><path d="M703.33 279.37m-40 0a40 40 0 1 0 80 0 40 40 0 1 0-80 0Z" fill="#FFCE54" /><path d="M319.33 744.22m-40 0a40 40 0 1 0 80 0 40 40 0 1 0-80 0Z" fill="#FFCE54" /><path d="M513 744.22m-40 0a40 40 0 1 0 80 0 40 40 0 1 0-80 0Z" fill="#FFCE54" /><path d="M715.78 744.22m-40 0a40 40 0 1 0 80 0 40 40 0 1 0-80 0Z" fill="#FFCE54" /></svg>