<svg class="svg-icon" style="width: 1em;height: 1em;vertical-align: middle;fill: currentColor;overflow: hidden;" viewBox="0 0 1024 1024" version="1.1" xmlns="http://www.w3.org/2000/svg"><path d="M728.07 495.24c-2.42 0-4.18-0.05-5.15-0.08l-568.38-3.11c-16.57-0.09-29.93-13.6-29.84-30.16 0.09-16.51 13.51-29.84 30-29.84h0.17l569.52 3.11 0.63 0.03c17.58 0.73 69.54-3.19 97.34-29.85 13.84-13.27 20.57-30.92 20.57-53.96 0-25.37-6.85-43.93-20.93-56.74-28.28-25.73-77.31-21.88-77.8-21.84-16.49 1.56-31.13-10.55-32.69-27.04-1.56-16.49 10.55-31.13 27.04-32.69 3.07-0.29 75.69-6.6 123.83 37.19 26.91 24.48 40.55 58.51 40.55 101.12 0 39.84-13.22 72.65-39.3 97.52-45.07 42.96-114.8 46.34-135.56 46.34zM728.07 811.02c-2.42 0-4.18-0.05-5.15-0.08l-568.38-3.11c-16.57-0.09-29.93-13.59-29.84-30.16 0.09-16.51 13.51-29.84 30-29.84h0.17l569.52 3.12 0.63 0.03c17.58 0.73 69.54-3.19 97.34-29.85 13.84-13.27 20.57-30.92 20.57-53.96 0-25.26-6.79-43.76-20.74-56.57-28.29-25.96-77.62-22.04-78.11-22l0.12-0.01-5.65-59.73c3.07-0.29 75.69-6.61 123.83 37.19 26.91 24.48 40.55 58.51 40.55 101.12 0 39.84-13.22 72.65-39.3 97.52-45.07 42.96-114.8 46.33-135.56 46.33z" fill="#FFCE54" /><path d="M163.7 638.33m-40 0a40 40 0 1 0 80 0 40 40 0 1 0-80 0Z" fill="#FFCE54" /><path d="M304.26 638.33m-40 0a40 40 0 1 0 80 0 40 40 0 1 0-80 0Z" fill="#FFCE54" /><path d="M163.7 320.22m-40 0a40 40 0 1 0 80 0 40 40 0 1 0-80 0Z" fill="#FFCE54" /><path d="M304.26 320.22m-40 0a40 40 0 1 0 80 0 40 40 0 1 0-80 0Z" fill="#FFCE54" /></svg>