<svg class="svg-icon" style="width: 1em;height: 1em;vertical-align: middle;fill: currentColor;overflow: hidden;" viewBox="0 0 1024 1024" version="1.1" xmlns="http://www.w3.org/2000/svg"><path d="M328.3 362.29m-137.23 0a137.23 137.23 0 1 0 274.46 0 137.23 137.23 0 1 0-274.46 0Z" fill="#FFCE54" /><path d="M328.3 187.78c-9.09 0-16.47-7.37-16.47-16.47v-54.89c0-9.09 7.37-16.47 16.47-16.47 9.09 0 16.47 7.37 16.47 16.47v54.89c0 9.1-7.38 16.47-16.47 16.47z" fill="#FFCE54" /><path d="M192.65 243.72c-4.21 0-8.43-1.61-11.64-4.82l-38.81-38.81c-6.43-6.43-6.43-16.86 0-23.29s16.86-6.43 23.29 0l38.81 38.81c6.43 6.43 6.43 16.86 0 23.29a16.464 16.464 0 0 1-11.65 4.82z" fill="#FFCE54" /><path d="M328.3 624.63c-9.09 0-16.47-7.37-16.47-16.47v-54.89c0-9.09 7.37-16.47 16.47-16.47 9.09 0 16.47 7.37 16.47 16.47v54.89c0 9.1-7.38 16.47-16.47 16.47z" fill="#FFCE54" /><path d="M152.07 554.61c-4.21 0-8.43-1.61-11.64-4.82-6.43-6.43-6.43-16.86 0-23.29l38.81-38.81c6.43-6.43 16.86-6.43 23.29 0s6.43 16.86 0 23.29l-38.81 38.81a16.464 16.464 0 0 1-11.65 4.82z" fill="#FFCE54" /><path d="M136.9 379.54H82.01c-9.09 0-16.47-7.37-16.47-16.47 0-9.09 7.37-16.47 16.47-16.47h54.89c9.09 0 16.47 7.37 16.47 16.47s-7.38 16.47-16.47 16.47z" fill="#FFCE54" /><path d="M499.62 556.18c-5.62 0-11.24-2.14-15.53-6.43l-38.81-38.81c-8.57-8.57-8.57-22.48 0-31.05s22.48-8.57 31.05 0l38.81 38.81c8.57 8.57 8.57 22.48 0 31.05-4.28 4.29-9.9 6.43-15.52 6.43z" fill="#FFCE54" /><path d="M573.35 379.54h-54.89c-9.09 0-16.47-7.37-16.47-16.47 0-9.09 7.37-16.47 16.47-16.47h54.89c9.09 0 16.47 7.37 16.47 16.47-0.01 9.1-7.38 16.47-16.47 16.47z" fill="#FFCE54" /><path d="M461.44 242.94c-4.21 0-8.43-1.61-11.64-4.82-6.43-6.43-6.43-16.86 0-23.29l38.81-38.81c6.43-6.43 16.86-6.43 23.29 0s6.43 16.86 0 23.29l-38.81 38.81a16.447 16.447 0 0 1-11.65 4.82z" fill="#FFCE54" /><path d="M785.48 797.8H659.6c-96.91 0-176.21-79.29-176.21-176.21 0-96.91 79.29-176.21 176.21-176.21h125.88c96.91 0 176.21 79.29 176.21 176.21-0.01 96.91-79.3 176.21-176.21 176.21z" fill="#AFC9E2" /><path d="M779.13 474.06c3.05-15.19 4.65-30.9 4.65-46.98 0-131.24-106.39-237.62-237.62-237.62S308.53 295.85 308.53 427.08c0 10.99 0.76 21.79 2.21 32.38-21.22-9.06-44.58-14.08-69.12-14.08-97.32 0-176.21 78.89-176.21 176.21 0 1.31 0.02 2.62 0.05 3.93-0.03 1.3-0.05 2.59-0.05 3.9 0 92.61 75.77 168.37 168.37 168.37H714.4c92.61 0 168.37-75.77 168.37-168.37 0.02-69.71-42.92-129.87-103.64-155.36z" fill="#C0DCFA" /><path d="M700.12 874.49h-26.01l18.39-18.39c3.91-3.9 3.91-10.23 0-14.14-3.9-3.9-10.23-3.9-14.14 0l-18.39 18.39v-26.02c0-5.52-4.48-10-10-10s-10 4.48-10 10v26.02l-18.39-18.39c-3.9-3.9-10.23-3.9-14.14 0s-3.91 10.23 0 14.14l18.39 18.39h-26.01c-5.52 0-10 4.48-10 10s4.48 10 10 10h26.01l-18.39 18.39c-3.91 3.9-3.91 10.23 0 14.14 1.95 1.95 4.51 2.93 7.07 2.93s5.12-0.98 7.07-2.93l18.39-18.39v26c0 5.52 4.48 10 10 10 5.53 0 10-4.47 10-10v-26l18.39 18.39c1.95 1.95 4.51 2.93 7.07 2.93s5.12-0.98 7.07-2.93c3.91-3.9 3.91-10.23 0-14.14l-18.39-18.39h26.01c5.52 0 10-4.48 10-10s-4.48-10-10-10zM422.13 874.49h-26.01l18.39-18.39c3.91-3.9 3.91-10.23 0-14.14-3.9-3.9-10.23-3.9-14.14 0l-18.39 18.39v-26.02c0-5.52-4.48-10-10-10s-10 4.48-10 10v26.02l-18.39-18.39c-3.9-3.9-10.23-3.9-14.14 0s-3.91 10.23 0 14.14l18.39 18.39h-26.01c-5.52 0-10 4.48-10 10s4.48 10 10 10h26.01l-18.39 18.39c-3.91 3.9-3.91 10.23 0 14.14 1.95 1.95 4.51 2.93 7.07 2.93s5.12-0.98 7.07-2.93l18.39-18.39v26c0 5.52 4.48 10 10 10 5.53 0 10-4.47 10-10v-26l18.39 18.39c1.95 1.95 4.51 2.93 7.07 2.93s5.12-0.98 7.07-2.93c3.91-3.9 3.91-10.23 0-14.14l-18.39-18.39h26.01c5.52 0 10-4.48 10-10s-4.48-10-10-10z" fill="#43A3FB" /></svg>