<svg class="svg-icon" style="width: 1em;height: 1em;vertical-align: middle;fill: currentColor;overflow: hidden;" viewBox="0 0 1024 1024" version="1.1" xmlns="http://www.w3.org/2000/svg"><path d="M128.67 639.99m-40 0a40 40 0 1 0 80 0 40 40 0 1 0-80 0Z" fill="#FFCE54" /><path d="M211.68 877.94m-40 0a40 40 0 1 0 80 0 40 40 0 1 0-80 0Z" fill="#FFCE54" /><path d="M241.02 767.33m-40 0a40 40 0 1 0 80 0 40 40 0 1 0-80 0Z" fill="#FFCE54" /><path d="M325.08 873.33m-40 0a40 40 0 1 0 80 0 40 40 0 1 0-80 0Z" fill="#FFCE54" /><path d="M138 767.33m-40 0a40 40 0 1 0 80 0 40 40 0 1 0-80 0Z" fill="#FFCE54" /><path d="M222.8 669.99c-1.31 0-2.1-0.01-2.34-0.02-16.57-0.31-29.75-13.98-29.44-30.55 0.3-16.38 13.67-29.45 29.98-29.45h0.54c1.19 0.02 51.12 0.49 116.38-15 59.49-14.12 144.54-44.86 211.85-111.12 77.25-76.05 116.42-183.4 116.42-319.07 0-16.57 13.43-30 30-30s30 13.43 30 30c0 152.59-45.33 274.46-134.75 362.24-34.44 33.81-75.46 62.37-121.92 84.89-36.81 17.84-77.11 31.94-119.77 41.92-65.05 15.23-115.56 16.16-126.95 16.16z" fill="#FFCE54" /><path d="M326.87 787.95c-1.31 0-2.1-0.01-2.34-0.02-16.57-0.31-29.75-13.98-29.44-30.55 0.31-16.56 13.99-29.71 30.52-29.44 1.17 0.01 51.11 0.49 116.38-15 59.49-14.12 144.54-44.86 211.85-111.12 77.25-76.05 116.42-183.4 116.42-319.07 0-16.57 13.43-30 30-30s30 13.43 30 30c0 152.59-45.33 274.46-134.75 362.24-34.44 33.81-75.46 62.37-121.92 84.89-36.81 17.84-77.11 31.94-119.77 41.92-65.06 15.21-115.56 16.15-126.95 16.15z" fill="#FFCE54" /><path d="M430.93 893.87c-1.31 0-2.1-0.01-2.34-0.02-16.57-0.31-29.75-13.98-29.44-30.55 0.31-16.56 13.96-29.73 30.52-29.44 1.19 0.02 51.12 0.49 116.38-15C605.54 804.74 690.59 774 757.9 707.74c77.25-76.05 116.42-183.4 116.42-319.07 0-16.57 13.43-30 30-30s30 13.43 30 30c0 152.59-45.33 274.46-134.75 362.24-34.44 33.81-75.46 62.37-121.92 84.89-36.81 17.84-77.11 31.94-119.77 41.92-65.05 15.21-115.56 16.15-126.95 16.15z" fill="#FFCE54" /></svg>